<svg xmlns="http://www.w3.org/2000/svg" version="1.1" xmlns:xlink="http://www.w3.org/1999/xlink" xmlns:svgjs="http://svgjs.dev/svgjs" width="1440" height="560" preserveAspectRatio="none" viewBox="0 0 1440 560"><g mask="url(&quot;#SvgjsMask1018&quot;)" fill="none"><rect width="1440" height="560" x="0" y="0" fill="rgba(1, 25, 57, 1)"></rect><path d="M188.1984876699961 335.7097490497416L104.96172412327032 348.89315725851554 201.38189587877002 418.9465125964674z" fill="rgba(28, 83, 142, 0.4)" class="triangle-float2"></path><path d="M45.45 446.96 a101.92 101.92 0 1 0 203.84 0 a101.92 101.92 0 1 0 -203.84 0z" fill="rgba(28, 83, 142, 0.4)" class="triangle-float3"></path><path d="M326.47583036489146 228.05076639422717L294.52031649975527 89.03190626661227 201.8549434204564 172.46818295358116z" fill="rgba(28, 83, 142, 0.4)" class="triangle-float2"></path><path d="M630.2268523576364 465.50912658058553L691.6306863433583 404.1052925948636 568.8230183719145 404.1052925948636z" fill="rgba(28, 83, 142, 0.4)" class="triangle-float1"></path><path d="M805.17 242.69 a160.48 160.48 0 1 0 320.96 0 a160.48 160.48 0 1 0 -320.96 0z" fill="rgba(28, 83, 142, 0.4)" class="triangle-float1"></path><path d="M234.42123613462616 321.9174219383103L242.67909132194248 441.6499386596688 330.6671136898746 384.50984882350133z" fill="rgba(28, 83, 142, 0.4)" class="triangle-float3"></path></g><defs><mask id="SvgjsMask1018"><rect width="1440" height="560" fill="#ffffff"></rect></mask><style>
                @keyframes float1 {
                    0%{transform: translate(0, 0)}
                    50%{transform: translate(-10px, 0)}
                    100%{transform: translate(0, 0)}
                }

                .triangle-float1 {
                    animation: float1 5s infinite;
                }

                @keyframes float2 {
                    0%{transform: translate(0, 0)}
                    50%{transform: translate(-5px, -5px)}
                    100%{transform: translate(0, 0)}
                }

                .triangle-float2 {
                    animation: float2 4s infinite;
                }

                @keyframes float3 {
                    0%{transform: translate(0, 0)}
                    50%{transform: translate(0, -10px)}
                    100%{transform: translate(0, 0)}
                }

                .triangle-float3 {
                    animation: float3 6s infinite;
                }
            </style></defs></svg>